<?xml version="1.0" standalone="no"?>
<!DOCTYPE svg PUBLIC "-//W3C//DTD SVG 20010904//EN"
 "http://www.w3.org/TR/2001/REC-SVG-20010904/DTD/svg10.dtd">
<svg version="1.0" xmlns="http://www.w3.org/2000/svg"
 width="512.000000pt" height="512.000000pt" viewBox="0 0 512.000000 512.000000"
 preserveAspectRatio="xMidYMid meet">

<g transform="translate(0.000000,512.000000) scale(0.100000,-0.100000)"
fill="#000000" stroke="none">
<path d="M755 5107 c-22 -8 -54 -21 -71 -30 -39 -20 -353 -320 -447 -425 -80
-91 -155 -230 -191 -353 -184 -636 195 -1577 1027 -2549 143 -166 577 -593
752 -739 938 -781 1821 -1131 2451 -971 43 11 129 45 189 74 130 64 184 110
430 366 200 208 220 241 220 365 0 138 8 128 -512 646 -430 428 -461 458 -513
475 -81 27 -173 23 -245 -10 -46 -21 -93 -60 -219 -185 -208 -205 -277 -243
-447 -243 -103 0 -172 22 -294 90 -406 227 -760 539 -1040 916 -141 191 -272
414 -301 511 -35 124 -14 280 53 388 14 23 94 112 179 197 121 123 159 168
180 214 33 73 37 165 10 246 -17 52 -47 83 -475 513 -504 506 -505 507 -629
513 -39 2 -84 -2 -107 -9z"/>
</g>
</svg>
