<svg version="1.1" xmlns="http://www.w3.org/2000/svg" xmlns:xlink="http://www.w3.org/1999/xlink" width="512.000000pt" height="512.000000pt" viewBox="0,0,256,256"><g fill="#f6f6f6" fill-rule="nonzero" stroke="none" stroke-width="1" stroke-linecap="butt" stroke-linejoin="miter" stroke-miterlimit="10" stroke-dasharray="" stroke-dashoffset="0" font-family="none" font-weight="none" font-size="none" text-anchor="none" style="mix-blend-mode: normal"><g transform="translate(0.00321,-0.02782) scale(0.5,0.5)"><g transform="translate(0,512) scale(0.1,-0.1)"><path d="M2310,4589c-377,-48 -753,-209 -1043,-447c-96,-79 -269,-259 -338,-352c-220,-296 -354,-627 -399,-990c-13,-109 -13,-371 1,-480c77,-626 433,-1179 970,-1506c245,-150 527,-247 819,-283c109,-14 371,-14 480,-1c361,45 701,182 989,398c95,72 264,233 346,333c244,291 406,670 454,1059c14,109 14,371 0,480c-74,601 -399,1126 -905,1466c-251,168 -569,285 -884,324c-98,12 -395,11 -490,-1zM2589,3999c63,-22 61,-3 61,-709v-640h496c508,0 522,-1 551,-39c33,-43 3,-123 -50,-136c-12,-3 -271,-4 -574,-3l-552,3l-23,23l-23,23l-3,702c-2,526 1,709 10,731c9,23 30,39 74,56c1,0 15,-5 33,-11z"></path></g></g></g></svg>