<svg version="1.1" xmlns="http://www.w3.org/2000/svg" xmlns:xlink="http://www.w3.org/1999/xlink" width="512.000000pt" height="512.000000pt" viewBox="0,0,256,256"><g fill="#f6f6f6" fill-rule="nonzero" stroke="none" stroke-width="1" stroke-linecap="butt" stroke-linejoin="miter" stroke-miterlimit="10" stroke-dasharray="" stroke-dashoffset="0" font-family="none" font-weight="none" font-size="none" text-anchor="none" style="mix-blend-mode: normal"><g transform="translate(0.11465,-0.03607) scale(0.5,0.5)"><g transform="translate(0,512) scale(0.1,-0.1)"><path d="M755,5107c-22,-8 -54,-21 -71,-30c-39,-20 -353,-320 -447,-425c-80,-91 -155,-230 -191,-353c-184,-636 195,-1577 1027,-2549c143,-166 577,-593 752,-739c938,-781 1821,-1131 2451,-971c43,11 129,45 189,74c130,64 184,110 430,366c200,208 220,241 220,365c0,138 8,128 -512,646c-430,428 -461,458 -513,475c-81,27 -173,23 -245,-10c-46,-21 -93,-60 -219,-185c-208,-205 -277,-243 -447,-243c-103,0 -172,22 -294,90c-406,227 -760,539 -1040,916c-141,191 -272,414 -301,511c-35,124 -14,280 53,388c14,23 94,112 179,197c121,123 159,168 180,214c33,73 37,165 10,246c-17,52 -47,83 -475,513c-504,506 -505,507 -629,513c-39,2 -84,-2 -107,-9z"></path></g></g></g></svg>