<svg version="1.1" xmlns="http://www.w3.org/2000/svg" xmlns:xlink="http://www.w3.org/1999/xlink" width="154.000000pt" height="145.000000pt" viewBox="0,0,256,241.03125"><g fill="#ddceb6" fill-rule="nonzero" stroke="none" stroke-width="1" stroke-linecap="butt" stroke-linejoin="miter" stroke-miterlimit="10" stroke-dasharray="" stroke-dashoffset="0" font-family="none" font-weight="none" font-size="none" text-anchor="none" style="mix-blend-mode: normal"><g transform="translate(0.82734,0.00737) scale(1.66234,1.66234)"><g transform="translate(0,145) scale(0.1,-0.1)"><path d="M720,1440c-8,-5 -25,-7 -38,-3c-38,9 -52,-13 -52,-83c0,-34 4,-65 9,-68c5,-3 16,13 25,35c9,23 19,39 22,36c3,-3 1,-14 -5,-25c-19,-36 -12,-44 18,-23c50,36 58,22 11,-19l-45,-40l45,20c25,11 55,20 68,20c29,0 62,17 62,32c0,7 -10,22 -22,35c-12,13 -27,38 -33,56c-11,34 -38,45 -65,27z"></path><path d="M429,1419c-11,-11 -19,-28 -19,-39c0,-11 -7,-20 -15,-20c-8,0 -19,-9 -25,-20c-9,-17 -6,-25 14,-45c20,-20 35,-25 78,-25c34,0 62,-6 77,-17c16,-11 22,-12 19,-3c-2,7 -22,22 -43,34c-22,11 -42,22 -44,24c-2,1 -2,4 1,7c3,3 21,-2 41,-10l37,-15v32c0,40 11,30 20,-19c6,-31 8,-24 9,37c0,41 -3,80 -7,86c-4,6 -33,11 -66,11c-44,0 -64,-5 -77,-18z"></path><path d="M1020,1413c1,-16 28,-43 52,-52c31,-12 33,6 3,39c-17,19 -55,28 -55,13z"></path><path d="M1170,1346c0,-33 20,-62 33,-49c11,11 8,58 -5,71c-20,20 -28,14 -28,-22z"></path><path d="M1270,1316c-13,-40 0,-105 25,-126c13,-11 15,-8 16,16c1,29 1,29 9,4c7,-24 7,-23 15,12c8,44 0,86 -22,111c-23,24 -30,22 -43,-17z"></path><path d="M1105,1271c-7,-13 27,-31 59,-31c29,0 36,24 10,34c-24,9 -62,7 -69,-3z"></path><path d="M750,1263c-8,-3 -26,-10 -39,-15c-34,-12 -21,-19 17,-9c37,11 55,-5 21,-17c-24,-9 -19,-16 24,-26c43,-10 34,-29 -10,-21l-38,7l24,-26c31,-33 10,-34 -33,-1c-46,35 -53,31 -18,-9c17,-19 33,-48 37,-64c3,-17 13,-33 21,-36c20,-8 51,9 58,32c3,10 19,23 36,29c22,8 30,18 30,37c0,13 -4,28 -10,31c-5,3 -10,16 -10,28c0,38 -28,67 -63,66c-18,0 -39,-3 -47,-6z"></path><path d="M415,1245c-43,-15 -67,-41 -63,-65c2,-8 -5,-23 -15,-33c-21,-21 -7,-57 23,-57c10,0 22,-9 25,-21c12,-37 55,-21 91,34c17,26 40,55 50,63c11,9 2,6 -20,-5c-48,-27 -61,-17 -21,15l30,24h-37c-21,0 -38,4 -38,9c0,10 35,21 70,21c14,0 20,4 15,9c-19,17 -70,20 -110,6z"></path><path d="M1243,1220c51,-66 92,-146 118,-227c17,-55 26,-70 35,-62c10,8 10,18 -1,50c-28,77 -87,177 -136,230c-47,50 -48,51 -16,9z"></path><path d="M597,1233c-12,-11 -8,-23 8,-23c8,0 15,7 15,15c0,16 -12,20 -23,8z"></path><path d="M290,1185c-48,-49 -48,-53 4,-29c23,11 36,26 39,43c3,14 4,27 3,28c-1,2 -22,-18 -46,-42z"></path><path d="M651,1150c22,-30 20,-55 -3,-32c-21,21 -28,13 -28,-34c0,-55 -15,-50 -24,8l-7,42l-25,-29l-25,-30l5,30c2,17 8,39 11,50c5,14 -1,12 -19,-10c-35,-41 -50,-88 -36,-115c6,-11 17,-20 25,-20c8,0 21,-13 30,-30c20,-39 46,-38 81,3c16,18 34,31 45,29c20,-3 39,25 39,61c0,13 -16,42 -36,65c-41,48 -66,57 -33,12z"></path><path d="M1133,1173c-18,-7 13,-50 48,-69c37,-19 118,-19 115,0c-7,51 -106,93 -163,69zM1280,1120c8,-5 11,-10 5,-10c-5,0 -17,5 -25,10c-8,5 -10,10 -5,10c6,0 17,-5 25,-10z"></path><path d="M916,1123c17,-37 9,-90 -21,-132c-56,-78 -59,-88 -44,-150c18,-77 19,-75 -26,-81c-32,-4 -41,-9 -43,-27c-2,-15 -10,-23 -23,-23c-12,0 -19,-7 -19,-20c0,-13 -7,-20 -19,-20c-22,0 -37,-17 -43,-45c-5,-29 -37,-29 -109,-1c-73,30 -87,31 -117,10c-67,-47 -42,-113 84,-229c48,-43 100,-100 117,-125l29,-45l-6,35c-3,19 -9,67 -12,106c-6,64 -5,73 15,93c31,31 44,27 34,-11c-15,-61 -8,-123 21,-171c34,-58 50,-69 29,-20c-41,99 13,274 122,391c30,33 55,69 55,80c0,11 -11,40 -25,63c-32,57 -31,96 5,179c34,78 36,90 15,130c-16,32 -33,42 -19,13z"></path><path d="M120,1057c-51,-112 -64,-180 -64,-322c-1,-121 7,-175 39,-270c6,-16 5,-17 -4,-5c-30,41 -63,179 -70,295l-7,120l-8,-69c-17,-140 8,-279 76,-416c34,-68 61,-103 133,-176c134,-134 276,-200 460,-211c200,-13 400,63 543,206c65,65 105,124 148,216c40,86 41,95 14,95c-12,0 -20,7 -20,17c0,9 -18,-19 -39,-63c-95,-191 -253,-317 -454,-358c-42,-9 -102,-16 -134,-16c-238,1 -468,148 -577,370c-25,52 -53,127 -61,165c-29,137 -14,294 38,424c32,80 24,78 -13,-2z"></path><path d="M254,1088c-31,-27 -64,-81 -64,-103c0,-3 14,9 31,27l30,33l-30,-56c-17,-31 -31,-64 -31,-75c1,-18 1,-18 12,1c18,33 80,95 122,122l40,26l-27,14c-15,7 -27,20 -27,28c0,23 -16,18 -56,-17z"></path><path d="M336,989c-83,-59 -137,-148 -135,-223c0,-28 2,-26 20,21c25,64 105,155 171,192c47,27 48,28 24,39c-21,9 -31,6 -80,-29z"></path><path d="M427,940c-107,-71 -168,-150 -182,-235l-6,-40l14,35c16,43 36,79 37,65c0,-5 -7,-32 -16,-60c-18,-58 -23,-192 -9,-250c8,-38 9,-37 16,42c11,145 93,277 240,387c54,41 58,46 40,55c-11,6 -23,20 -26,31c-9,29 -23,25 -108,-30z"></path><path d="M627,939c-23,-13 -22,-61 2,-83c28,-25 66,-17 68,14c1,14 0,18 -3,8c-7,-25 -51,-23 -59,2c-3,10 -1,29 5,40c14,26 10,32 -13,19z"></path><path d="M1394,895c-66,-64 -69,-71 -49,-101c31,-48 119,-69 163,-38c31,21 28,54 -9,100c-17,22 -37,50 -43,64l-11,25z"></path><path d="M21,894c0,-11 3,-14 6,-6c3,7 2,16 -1,19c-3,4 -6,-2 -5,-13z"></path><path d="M1170,820c-26,-26 -26,-66 1,-81c18,-9 20,-8 15,9c-9,26 17,46 49,38c38,-10 101,-82 131,-152l28,-62l21,46c12,26 34,62 49,80l28,32h-37c-42,0 -70,13 -144,69c-62,47 -108,54 -141,21z"></path><path d="M1165,680c-7,-12 2,-30 16,-30c5,0 9,9 9,20c0,21 -15,27 -25,10z"></path><path d="M1205,513c-44,-58 -74,-78 -137,-94c-64,-15 -73,-5 -16,20c37,16 58,36 58,56c0,4 -80,-23 -121,-39c-9,-4 -26,-24 -38,-46c-23,-42 -112,-243 -108,-245c1,-1 30,4 64,12l61,14l17,52c21,67 45,91 125,132c68,35 219,175 189,175c-9,0 -24,-9 -34,-20c-22,-24 -31,-19 -15,9c20,39 -8,22 -45,-26z"></path></g></g></g></svg>